<svg width="137" height="27" viewBox="0 0 137 27" fill="none" xmlns="http://www.w3.org/2000/svg">
<path d="M21.17 11.9123C20.791 12.2936 20.5008 12.7538 20.32 13.26C20.1392 13.7663 20.0723 14.3062 20.124 14.8413L20.106 14.8233C20.1592 15.4532 20.0742 16.087 19.8571 16.6807C19.64 17.2743 19.296 17.8134 18.8491 18.2604C18.4021 18.7073 17.863 19.0514 17.2693 19.2684C16.6757 19.4855 16.0418 19.5705 15.412 19.5173L15.43 19.5353C14.6766 19.4652 13.9199 19.6291 13.263 20.0048C12.6062 20.3805 12.0812 20.9496 11.7597 21.6346C11.4382 22.3196 11.3357 23.087 11.4663 23.8324C11.597 24.5777 11.9543 25.2646 12.4896 25.7994C13.0249 26.3342 13.7121 26.6909 14.4575 26.8208C15.203 26.9508 15.9703 26.8476 16.655 26.5255C17.3397 26.2033 17.9083 25.6779 18.2834 25.0207C18.6585 24.3635 18.8218 23.6067 18.751 22.8533L18.77 22.8713C18.7168 22.2415 18.8017 21.6076 19.0188 21.0139C19.2359 20.4203 19.58 19.8812 20.0269 19.4342C20.4739 18.9873 21.013 18.6432 21.6066 18.4262C22.2003 18.2091 22.8341 18.1241 23.464 18.1773L23.445 18.1593C24.0604 18.2146 24.6799 18.1137 25.246 17.8659C25.812 17.6181 26.3064 17.2314 26.6832 16.7417C27.06 16.252 27.3072 15.675 27.4016 15.0644C27.4961 14.4537 27.4349 13.8291 27.2237 13.2483C27.0125 12.6676 26.6581 12.1496 26.1934 11.7423C25.7287 11.335 25.1687 11.0516 24.5653 10.9184C23.9619 10.7852 23.3346 10.8064 22.7416 10.9801C22.1486 11.1539 21.6091 11.4745 21.173 11.9123H21.17Z" fill="#FEFBF9"/>
<path d="M13.7922 17.1777L13.7732 17.1597C14.3085 17.2136 14.8491 17.1479 15.356 16.9673C15.8628 16.7867 16.3232 16.4958 16.7038 16.1155C17.0843 15.7352 17.3757 15.275 17.5566 14.7683C17.7376 14.2616 17.8037 13.7211 17.7502 13.1857L17.7692 13.2037C17.716 12.5738 17.801 11.94 18.018 11.3463C18.2351 10.7527 18.5792 10.2136 19.0261 9.76664C19.4731 9.31974 20.0122 8.97564 20.6058 8.75864C21.1995 8.5415 21.8333 8.45657 22.4632 8.50974L22.4442 8.49174C23.1977 8.56254 23.9546 8.3991 24.6118 8.02384C25.2691 7.64858 25.7945 7.07971 26.1165 6.39484C26.4385 5.70998 26.5414 4.94245 26.4112 4.19694C26.281 3.45143 25.924 2.76425 25.3888 2.22911C24.8537 1.69398 24.1665 1.33694 23.421 1.20672C22.6755 1.07649 21.908 1.1794 21.2231 1.50142C20.5382 1.82343 19.9694 2.34888 19.5941 3.00609C19.2188 3.66329 19.0554 4.42026 19.1262 5.17374L19.1082 5.15474C19.1615 5.78463 19.0767 6.41857 18.8597 7.01229C18.6427 7.60601 18.2986 8.1452 17.8517 8.59224C17.4047 9.03914 16.8655 9.38324 16.2718 9.60024C15.678 9.81724 15.0441 9.90204 14.4142 9.84874L14.4322 9.86774C13.8969 9.81384 13.3562 9.87954 12.8494 10.0601C12.3426 10.2406 11.8822 10.5316 11.5016 10.9119C11.121 11.2922 10.8297 11.7524 10.6487 12.2591C10.4678 12.7658 10.4017 13.3063 10.4552 13.8417L10.4372 13.8237C10.4902 14.4535 10.4051 15.0873 10.188 15.6809C9.97075 16.2744 9.62675 16.8135 9.17985 17.2604C8.73291 17.7073 8.19387 18.0513 7.60031 18.2685C7.00675 18.4856 6.37296 18.5707 5.74315 18.5177L5.76115 18.5357C5.00767 18.4649 4.2507 18.6283 3.59349 19.0036C2.93629 19.3789 2.41084 19.9477 2.08883 20.6326C1.76681 21.3175 1.66389 22.085 1.79412 22.8305C1.92435 23.576 2.28139 24.2632 2.81652 24.7983C3.35166 25.3335 4.03884 25.6905 4.78435 25.8207C5.52986 25.9509 6.29739 25.848 6.98226 25.526C7.66712 25.204 8.23599 24.6786 8.61125 24.0214C8.98655 23.3641 9.14995 22.6072 9.07915 21.8537L9.09815 21.8717C9.04495 21.2418 9.12995 20.608 9.34705 20.0143C9.56405 19.4207 9.90815 18.8816 10.3551 18.4346C10.8021 17.9877 11.3412 17.6436 11.9348 17.4266C12.5285 17.2095 13.1623 17.1245 13.7922 17.1777Z" fill="#FEFBF9"/>
<path d="M7.09119 15.1704C7.47021 14.7892 7.76039 14.329 7.94103 13.8227C8.12167 13.3164 8.18831 12.7764 8.13619 12.2414L8.15518 12.2594C8.10198 11.6294 8.18694 10.9953 8.40415 10.4015C8.62136 9.80774 8.96559 9.26854 9.41279 8.82154C9.85999 8.37456 10.3993 8.03057 10.9932 7.81362C11.5871 7.59666 12.2212 7.51196 12.8512 7.56544L12.8322 7.54744C13.5854 7.61801 14.3421 7.45452 14.999 7.07928C15.6559 6.70405 16.181 6.13532 16.5029 5.45067C16.8247 4.76601 16.9275 3.99876 16.7973 3.25353C16.6671 2.5083 16.3101 1.82138 15.7752 1.28644C15.2403 0.751503 14.5533 0.394583 13.8081 0.264363C13.0629 0.134133 12.2956 0.236953 11.611 0.558773C10.9263 0.880593 10.3576 1.40576 9.98239 2.06266C9.60709 2.71956 9.44359 3.47622 9.51419 4.22944L9.49619 4.21144C9.54939 4.84129 9.46439 5.47516 9.24729 6.0688C9.03019 6.66244 8.68621 7.20155 8.23925 7.64851C7.7923 8.09547 7.25318 8.4395 6.65954 8.65654C6.0659 8.87364 5.43204 8.95864 4.80219 8.90544L4.82019 8.92344C4.20476 8.86824 3.58535 8.96934 3.01937 9.21724C2.45339 9.46514 1.95914 9.85194 1.58243 10.3417C1.20572 10.8314 0.958738 11.4084 0.864358 12.019C0.769988 12.6297 0.831278 13.2543 1.04255 13.8349C1.25382 14.4156 1.60825 14.9335 2.07298 15.3407C2.53771 15.748 3.09771 16.0313 3.70109 16.1645C4.30446 16.2976 4.93169 16.2763 5.52466 16.1026C6.11762 15.9288 6.65712 15.6082 7.09318 15.1704H7.09119Z" fill="#FEFBF9"/>
<path d="M38.0674 5.19678H41.0374V19.6498H38.0674V5.19678Z" fill="#FEFBF9"/>
<path d="M42.7199 14.7006C42.7158 13.662 43.02 12.6454 43.594 11.7798C44.168 10.9142 44.986 10.2384 45.9444 9.83811C46.9028 9.43771 47.9584 9.33081 48.9776 9.53091C49.9968 9.73101 50.9337 10.229 51.6696 10.962C52.4055 11.6949 52.9073 12.6298 53.1115 13.6482C53.3157 14.6666 53.213 15.7227 52.8165 16.6827C52.42 17.6426 51.7475 18.4634 50.8842 19.0408C50.0208 19.6183 49.0056 19.9266 47.9669 19.9266C47.2775 19.9345 46.5934 19.8048 45.9546 19.5452C45.3158 19.2856 44.7352 18.9013 44.2467 18.4148C43.7581 17.9282 43.3715 17.3491 43.1094 16.7114C42.8472 16.0737 42.7148 15.3901 42.7199 14.7006ZM50.2439 14.7006C50.2315 14.2529 50.0874 13.8188 49.8297 13.4525C49.5719 13.0863 49.2119 12.8041 48.7947 12.6414C48.3774 12.4786 47.9215 12.4424 47.4838 12.5374C47.0461 12.6324 46.6461 12.8542 46.3338 13.1753C46.0216 13.4963 45.8108 13.9023 45.7281 14.3425C45.6453 14.7826 45.694 15.2374 45.8683 15.65C46.0426 16.0626 46.3346 16.4146 46.7078 16.6621C47.0811 16.9096 47.5191 17.0416 47.9669 17.0416C48.2736 17.0498 48.5787 16.9943 48.863 16.8787C49.1472 16.7631 49.4044 16.5899 49.6183 16.37C49.8322 16.15 49.9983 15.8881 50.1059 15.6008C50.2136 15.3135 50.2606 15.007 50.2439 14.7006Z" fill="#FEFBF9"/>
<path d="M65.0519 9.75031V19.1503C65.0519 22.4763 62.4579 23.8823 59.8249 23.8823C58.8979 23.9517 57.9696 23.7644 57.1419 23.3411C56.3143 22.9177 55.6192 22.2746 55.1329 21.4823L57.6669 20.0173C57.8713 20.4303 58.197 20.771 58.6003 20.9939C59.0037 21.2167 59.4655 21.3111 59.9239 21.2643C60.2169 21.3049 60.5153 21.2791 60.797 21.1888C61.0786 21.0985 61.3364 20.946 61.5512 20.7427C61.766 20.5393 61.9323 20.2903 62.0379 20.0139C62.1434 19.7376 62.1854 19.4411 62.1609 19.1463V18.2413C61.8131 18.6668 61.3705 19.0049 60.8684 19.2284C60.3663 19.4519 59.8189 19.5546 59.2699 19.5283C57.9637 19.4871 56.7248 18.9393 55.8154 18.0007C54.906 17.0622 54.3975 15.8066 54.3975 14.4998C54.3975 13.193 54.906 11.9374 55.8154 10.9989C56.7248 10.0603 57.9637 9.51252 59.2699 9.47132C59.8189 9.44502 60.3663 9.54772 60.8684 9.77122C61.3705 9.99472 61.8131 10.3328 62.1609 10.7583V9.74831L65.0519 9.75031ZM62.1619 14.5013C62.1819 14.0227 62.0581 13.549 61.8066 13.1413C61.5551 12.7335 61.1873 12.4104 60.7506 12.2135C60.3139 12.0165 59.8283 11.9548 59.3562 12.0362C58.8841 12.1176 58.4472 12.3384 58.1016 12.6703C57.7561 13.0021 57.5178 13.4297 57.4173 13.8981C57.3169 14.3665 57.3589 14.8543 57.5381 15.2986C57.7172 15.7429 58.0252 16.1235 58.4224 16.3913C58.8196 16.6591 59.2879 16.8019 59.7669 16.8013C60.079 16.8231 60.3921 16.7793 60.6862 16.6727C60.9803 16.5661 61.2488 16.399 61.4744 16.1824C61.7 15.9657 61.8778 15.7042 61.9962 15.4146C62.1146 15.1251 62.1711 14.814 62.1619 14.5013Z" fill="#FEFBF9"/>
<path d="M66.7335 14.7006C66.7294 13.662 67.0335 12.6454 67.6076 11.7798C68.1816 10.9142 68.9996 10.2384 69.958 9.83811C70.9164 9.43771 71.972 9.33081 72.9912 9.53091C74.0104 9.73101 74.9473 10.229 75.6832 10.962C76.4191 11.6949 76.9209 12.6298 77.1251 13.6482C77.3293 14.6666 77.2266 15.7227 76.8301 16.6827C76.4336 17.6426 75.7611 18.4634 74.8978 19.0408C74.0344 19.6183 73.0192 19.9266 71.9805 19.9266C71.2911 19.9345 70.6069 19.8048 69.9682 19.5452C69.3294 19.2856 68.7488 18.9013 68.2603 18.4148C67.7717 17.9282 67.3851 17.3491 67.123 16.7114C66.8608 16.0737 66.7284 15.3901 66.7335 14.7006ZM74.2575 14.7006C74.2451 14.2529 74.101 13.8188 73.8433 13.4525C73.5855 13.0863 73.2255 12.8041 72.8083 12.6414C72.391 12.4786 71.935 12.4424 71.4974 12.5374C71.0597 12.6324 70.6597 12.8542 70.3474 13.1753C70.0352 13.4963 69.8244 13.9023 69.7416 14.3425C69.6588 14.7826 69.7076 15.2374 69.8819 15.65C70.0562 16.0626 70.3482 16.4146 70.7214 16.6621C71.0947 16.9096 71.5326 17.0416 71.9805 17.0416C72.2872 17.0498 72.5923 16.9943 72.8765 16.8787C73.1608 16.7631 73.418 16.5899 73.6319 16.37C73.8458 16.15 74.0119 15.8881 74.1195 15.6008C74.2272 15.3135 74.2742 15.007 74.2575 14.7006Z" fill="#FEFBF9"/>
<path d="M78.6123 7.09743C78.6123 6.74498 78.7168 6.40045 78.9126 6.10741C79.1084 5.81436 79.3868 5.58595 79.7124 5.45108C80.038 5.3162 80.3963 5.28091 80.742 5.34967C81.0876 5.41843 81.4052 5.58815 81.6544 5.83737C81.9036 6.08658 82.0733 6.4041 82.1421 6.74978C82.2108 7.09545 82.1755 7.45375 82.0407 7.77937C81.9058 8.10499 81.6774 8.3833 81.3843 8.57913C81.0913 8.77493 80.7468 8.87943 80.3943 8.87943C79.9232 8.87473 79.4726 8.68553 79.1394 8.35231C78.8063 8.01913 78.617 7.56859 78.6123 7.09743ZM78.9123 9.75043H81.8833V19.6504H78.9083L78.9123 9.75043Z" fill="#FEFBF9"/>
<path d="M94.7067 14.7008C94.741 15.3551 94.6457 16.0097 94.4261 16.627C94.2066 17.2443 93.8672 17.8121 93.4274 18.2978C92.9877 18.7834 92.4562 19.1774 91.8637 19.457C91.2711 19.7365 90.6292 19.8962 89.9747 19.9268C89.4243 19.9568 88.8742 19.864 88.3641 19.6551C87.854 19.4461 87.3969 19.1263 87.0257 18.7188V23.6098H84.0557V9.75077H87.0257V10.6808C87.397 10.2736 87.8543 9.95397 88.3643 9.74527C88.8744 9.53647 89.4244 9.44378 89.9747 9.47378C90.6293 9.50428 91.2714 9.66387 91.8641 9.94347C92.4568 10.2231 92.9883 10.6171 93.4281 11.1029C93.8679 11.5887 94.2073 12.1567 94.4267 12.7742C94.6461 13.3916 94.7413 14.0464 94.7067 14.7008ZM91.7367 14.7008C91.7251 14.2375 91.5771 13.7879 91.3112 13.4082C91.0453 13.0286 90.6734 12.7358 90.242 12.5666C89.8105 12.3973 89.3387 12.359 88.8856 12.4566C88.4325 12.5541 88.0183 12.7831 87.6947 13.1149C87.3711 13.4468 87.1526 13.8666 87.0665 14.3221C86.9804 14.7775 87.0305 15.2481 87.2106 15.6752C87.3906 16.1023 87.6927 16.4667 88.0789 16.723C88.4651 16.9792 88.9182 17.1159 89.3817 17.1158C89.6999 17.13 90.0175 17.0767 90.3137 16.9595C90.6098 16.8424 90.8779 16.6639 91.1002 16.4359C91.3226 16.2078 91.4942 15.9354 91.6039 15.6364C91.7136 15.3374 91.7589 15.0185 91.7367 14.7008Z" fill="#FEFBF9"/>
<path d="M103.871 16.6794C103.871 18.9564 101.892 19.9264 99.7541 19.9264C98.8901 20.0046 98.0228 19.822 97.2639 19.4019C96.505 18.9819 95.8896 18.3439 95.4971 17.5704L98.0701 16.1054C98.1742 16.4629 98.3978 16.774 98.7035 16.9865C99.0091 17.1991 99.3791 17.3004 99.7501 17.2734C100.462 17.2734 100.819 17.0554 100.819 16.6604C100.819 15.5704 95.9481 16.1454 95.9481 12.7204C95.9481 10.5614 97.7701 9.47336 99.8291 9.47336C100.603 9.44886 101.369 9.63246 102.048 10.005C102.727 10.3776 103.294 10.9254 103.689 11.5914L101.155 12.9574C101.044 12.6981 100.859 12.4772 100.623 12.3223C100.387 12.1674 100.111 12.0854 99.8291 12.0864C99.3141 12.0864 98.9971 12.2864 98.9971 12.6404C99.0011 13.7694 103.871 13.0164 103.871 16.6794Z" fill="#FEFBF9"/>
<path d="M114.722 9.75049V19.6505H111.752V18.7195C111.409 19.1303 110.974 19.454 110.482 19.664C109.99 19.874 109.456 19.9643 108.922 19.9275C106.922 19.9275 105.222 18.5025 105.222 15.8275V9.75049H108.192V15.3925C108.167 15.6283 108.194 15.8667 108.271 16.091C108.347 16.3154 108.472 16.5204 108.636 16.6917C108.8 16.863 108.999 16.9965 109.22 17.083C109.44 17.1695 109.677 17.2069 109.914 17.1925C111.003 17.1925 111.755 16.5595 111.755 15.1535V9.75349L114.722 9.75049Z" fill="#FEFBF9"/>
<path d="M131.75 13.5712V19.6492H128.78V13.8282C128.78 12.8382 128.305 12.2052 127.355 12.2052C126.365 12.2052 125.81 12.8982 125.81 14.0662V19.6492H122.841V13.8282C122.841 12.8382 122.366 12.2052 121.415 12.2052C120.425 12.2052 119.871 12.8982 119.871 14.0662V19.6492H116.901V9.74924H119.871V10.6592C120.179 10.2555 120.583 9.93534 121.046 9.72804C121.51 9.52064 122.018 9.43274 122.524 9.47224C123.032 9.44734 123.538 9.55464 123.993 9.78354C124.447 10.0123 124.834 10.3551 125.117 10.7782C125.446 10.3355 125.882 9.98354 126.384 9.75514C126.886 9.52674 127.438 9.42944 127.988 9.47224C130.261 9.47324 131.75 11.0962 131.75 13.5712Z" fill="#FEFBF9"/>
<path d="M134.264 9.68974C135.481 9.68974 136.468 8.70294 136.468 7.48574C136.468 6.2685 135.481 5.28174 134.264 5.28174C133.047 5.28174 132.06 6.2685 132.06 7.48574C132.06 8.70294 133.047 9.68974 134.264 9.68974Z" fill="#FEFBF9"/>
</svg>
