<svg width="92" height="21" viewBox="0 0 92 21" fill="none" xmlns="http://www.w3.org/2000/svg">
<path d="M0.204102 20.8025H20.7241V0.282471H0.204102V20.8025ZM16.7745 8.56807H12.4385V4.23207H16.7745V8.56807ZM4.1529 4.23207H8.49132V12.5169H16.7745V16.8529H4.1529V4.23207ZM34.0865 0.282471C32.0572 0.282471 30.0736 0.884215 28.3864 2.0116C26.6991 3.13898 25.384 4.74137 24.6075 6.61615C23.8309 8.49095 23.6278 10.5538 24.0236 12.5441C24.4196 14.5343 25.3967 16.3625 26.8316 17.7974C28.2664 19.2323 30.0946 20.2094 32.0848 20.6054C34.0752 21.0012 36.138 20.7981 38.0128 20.0215C39.8876 19.245 41.49 17.9299 42.6174 16.2426C43.7448 14.5554 44.3465 12.5717 44.3465 10.5425C44.3433 7.82231 43.2613 5.2145 41.3379 3.29107C39.4144 1.36763 36.8067 0.285647 34.0865 0.282471ZM34.0865 16.8529C32.8384 16.8529 31.6184 16.4828 30.5806 15.7893C29.5429 15.096 28.734 14.1105 28.2564 12.9574C27.7788 11.8043 27.6539 10.5355 27.8973 9.31135C28.1408 8.08727 28.7419 6.96287 29.6244 6.08034C30.5069 5.19782 31.6313 4.59681 32.8554 4.35333C34.0795 4.10984 35.3483 4.23481 36.5014 4.71242C37.6544 5.19004 38.64 5.99886 39.3334 7.03663C40.0268 8.07431 40.3969 9.29439 40.3969 10.5425C40.3944 12.2153 39.7287 13.819 38.5458 15.0018C37.3629 16.1847 35.7593 16.8503 34.0865 16.8529ZM81.0617 0.282471C79.0321 0.282319 77.0487 0.883919 75.3613 2.01121C73.674 3.13849 72.3588 4.74083 71.5821 6.61559C70.8055 8.49031 70.6021 10.5534 70.998 12.5436C71.3937 14.5339 72.3708 16.3622 73.8057 17.7971C75.2405 19.2321 77.0687 20.2094 79.0593 20.6053C81.0489 21.0012 83.1121 20.7981 84.9873 20.0216C86.8617 19.245 88.4641 17.93 89.5913 16.2427C90.7193 14.5554 91.3209 12.5717 91.3209 10.5425C91.3177 7.82247 90.2361 5.21476 88.3129 3.29135C86.3897 1.36793 83.7817 0.285863 81.0617 0.282471ZM81.0617 16.8529C79.8137 16.853 78.5937 16.483 77.5556 15.7897C76.5178 15.0965 75.7088 14.111 75.2311 12.9579C74.7533 11.8049 74.6283 10.536 74.8716 9.31183C75.1151 8.08775 75.716 6.96327 76.5985 6.08063C77.481 5.19802 78.6057 4.59693 79.8297 4.35338C81.0537 4.10983 82.3225 4.23475 83.4753 4.71235C84.6289 5.18994 85.6145 5.99876 86.3081 7.03655C87.0009 8.07431 87.3713 9.29439 87.3713 10.5425C87.3689 12.2152 86.7033 13.8186 85.5201 15.0015C84.3377 16.1844 82.7345 16.8502 81.0617 16.8529ZM57.5737 0.282471C55.5444 0.282471 53.5608 0.884215 51.8736 2.0116C50.1863 3.13898 48.8712 4.74137 48.0947 6.61615C47.3181 8.49095 47.115 10.5538 47.5108 12.5441C47.9068 14.5343 48.8839 16.3625 50.3188 17.7974C51.7536 19.2323 53.5818 20.2094 55.572 20.6054C57.5623 21.0012 59.6252 20.7981 61.5 20.0215C63.3748 19.245 64.9772 17.9299 66.1046 16.2426C67.232 14.5554 67.8337 12.5717 67.8337 10.5425C67.8305 7.82231 66.7485 5.2145 64.8251 3.29107C62.9016 1.36763 60.2939 0.285647 57.5737 0.282471ZM57.5737 16.8529C56.4108 16.8534 55.2705 16.5327 54.2784 15.9261C53.2864 15.3194 52.4812 14.4506 51.9519 13.4152C51.4226 12.3798 51.1896 11.2183 51.2787 10.059C51.3678 8.89951 51.7755 7.78727 52.4568 6.84495C53.1382 5.90268 54.0667 5.16696 55.1397 4.71904C56.2128 4.27111 57.3888 4.12841 58.5379 4.30666C59.687 4.48493 60.7644 4.97721 61.6514 5.72921C62.5384 6.48119 63.2003 7.46367 63.5641 8.56807H57.5737V12.5169H63.5641C63.1474 13.7771 62.3445 14.8742 61.2692 15.6525C60.194 16.4308 58.9011 16.8507 57.5737 16.8529Z" fill="#FEFBF9"/>
</svg>
