<svg width="121" height="28" viewBox="0 0 121 28" fill="none" xmlns="http://www.w3.org/2000/svg">
<path d="M21.1667 11.2153C23.5576 11.2153 24.0955 12.2538 24.0955 13.549C24.0955 14.922 23.4448 15.9056 21.1766 15.9056C18.9229 15.9056 18.2715 14.9791 18.2715 13.549C18.2715 12.1418 18.9816 11.2153 21.1667 11.2153Z" fill="#FEFBF9"/>
<path d="M46.1531 11.2153C48.5439 11.2153 49.0818 12.2538 49.0818 13.549C49.0818 14.922 48.4304 15.9056 46.163 15.9056C43.91 15.9056 43.2578 14.9791 43.2578 13.549C43.2578 12.1418 43.9679 11.2153 46.1531 11.2153Z" fill="#FEFBF9"/>
<path fill-rule="evenodd" clip-rule="evenodd" d="M0 27.0484V0.0366211H120.822V27.0484H0ZM57.5833 25.5246H119.298V1.56043H57.5833V25.5246ZM21.1796 18.205C25.4242 18.205 27.2086 16.3741 27.2086 13.5147C27.2086 10.6088 25.1987 8.88157 21.1796 8.88157C17.2223 8.88157 15.1392 10.7574 15.1392 13.5147C15.1392 16.6263 17.3244 18.205 21.1796 18.205ZM6.42228 9.08729V18.0679H14.9891V15.6762H9.52171V9.08729H6.42228ZM36.7964 18.0679L36.7164 17.1978C35.6795 17.9377 34.4175 18.2938 33.1468 18.205C31.2368 18.205 29.6459 17.6328 28.7537 16.4778C28.1652 15.6345 27.8681 14.6222 27.9072 13.5947C27.8738 12.5888 28.1812 11.601 28.7796 10.7917C29.6825 9.67091 31.319 8.92729 33.7556 8.92729C36.5587 8.92729 38.2059 9.78519 38.9145 11.2267C39.0665 11.5662 39.1559 11.9304 39.1781 12.3018H36.2128C36.138 12.0761 35.999 11.8772 35.8128 11.7296C35.222 11.338 34.5167 11.1569 33.8105 11.2153C33.3962 11.1651 32.9759 11.2033 32.5776 11.3276C32.1793 11.4519 31.8118 11.6593 31.4996 11.9361C31.145 12.4214 30.9785 13.0189 31.031 13.6176C30.9899 14.1888 31.143 14.7572 31.4653 15.2305C31.7804 15.5241 32.1549 15.7464 32.5635 15.8826C32.9721 16.0188 33.4051 16.0657 33.8333 16.0199C34.6838 16.089 35.5283 15.8267 36.1899 15.2877C36.332 15.11 36.43 14.9011 36.4756 14.6781H33.2848V12.7482H39.2558V18.0679H36.7964ZM46.1655 18.205C50.4093 18.205 52.1945 16.3741 52.1945 13.5147C52.1945 10.6088 50.1814 8.88157 46.1655 8.88157C42.2082 8.88157 40.1251 10.7574 40.1251 13.5147C40.1251 16.6263 42.3103 18.205 46.1655 18.205Z" fill="#FEFBF9"/>
<path d="M62.8027 18.0338V9.05322H65.0123V18.0338H62.8027Z" fill="#FEFBF9"/>
<path d="M76.3596 14.2813C75.7996 15.0135 74.8358 15.3479 73.4773 15.3563C73.1908 15.3563 69.3928 15.3449 69.3928 15.3449V18.0337H67.2305V9.05309H73.4781C73.9788 9.00013 74.4853 9.05324 74.9638 9.2089C75.443 9.36463 75.8834 9.61941 76.2575 9.95671C76.7512 10.5999 76.9912 11.4019 76.9326 12.2104C76.9829 12.9458 76.7809 13.6764 76.3596 14.2813ZM74.5867 11.3533C74.3581 11.0104 73.8651 10.8199 73.0309 10.8199H69.3813V13.5537H73.0072C73.8994 13.5537 74.3695 13.3708 74.5867 13.0158C74.7154 12.7656 74.771 12.4839 74.7467 12.2036C74.7657 11.9111 74.7109 11.6186 74.5867 11.3533Z" fill="#FEFBF9"/>
<path d="M83.304 18.1709C79.2309 18.1709 77.9844 16.6471 77.9844 15.1393H80.2952C80.2952 15.8829 81.3131 16.4436 83.4069 16.4436C85.4884 16.4436 86.0377 16.0772 86.0377 15.4821C86.0377 14.8185 85.6263 14.6128 83.6926 14.3956C83.3116 14.3613 82.2747 14.2356 81.8853 14.1785C79.1425 13.8692 78.0865 13.057 78.0865 11.604C78.0865 10.0711 79.6316 8.91602 82.9832 8.91602C86.6213 8.91602 88.0171 10.3461 88.0171 11.8333H85.7314C85.7314 11.0783 84.8735 10.6433 82.8484 10.6433C80.7661 10.6433 80.3204 10.929 80.3204 11.4897C80.3204 12.0733 80.7775 12.2562 82.987 12.5191C83.4907 12.5884 84.6114 12.7141 84.92 12.7476C87.2545 12.9876 88.3067 13.8341 88.3067 15.3328C88.3028 17.1179 86.7013 18.1709 83.304 18.1709Z" fill="#FEFBF9"/>
<path d="M94.8131 18.1595C91.828 18.1595 89.8828 16.9808 89.8828 14.5024V9.05322H92.0672V14.5328C92.0672 15.6658 92.9944 16.4201 94.9045 16.4201C96.6318 16.4201 97.6619 15.7115 97.6619 14.5328V9.05322H99.8241V14.7058C99.8241 16.9587 98.0161 18.1595 94.8131 18.1595Z" fill="#FEFBF9"/>
<path d="M111.664 18.0338V12.0391L108.861 18.0338H106.733L104.01 12.0391V18.0338H101.953V9.05322H104.74L107.829 15.8944L110.986 9.05322H113.729V18.0338H111.664Z" fill="#FEFBF9"/>
</svg>
