<svg width="127" height="34" viewBox="0 0 127 34" fill="none" xmlns="http://www.w3.org/2000/svg">
<path d="M20.6177 7.91223H22.6177V21.8322H28.6177V23.8322H20.6177V7.91223ZM34.8477 7.91223C36.0344 7.91223 37.1944 8.26413 38.1811 8.92343C39.1678 9.58273 39.9369 10.5197 40.391 11.6161C40.8451 12.7125 40.9639 13.9189 40.7324 15.0827C40.5009 16.2466 39.9295 17.3157 39.0903 18.1548C38.2512 18.994 37.1821 19.5654 36.0182 19.7969C34.8544 20.0284 33.648 19.9096 32.5516 19.4555C31.4552 19.0013 30.5182 18.2323 29.8589 17.2456C29.1996 16.2589 28.8477 15.0989 28.8477 13.9122C28.8477 13.1243 29.0029 12.344 29.3044 11.6161C29.6059 10.8881 30.0479 10.2267 30.6051 9.66963C31.1622 9.11243 31.8236 8.67043 32.5516 8.36893C33.2795 8.06743 34.0598 7.91223 34.8477 7.91223ZM34.8477 17.9122C35.6388 17.9122 36.4122 17.6776 37.07 17.2381C37.7278 16.7985 38.2405 16.1738 38.5432 15.4429C38.846 14.712 38.9252 13.9078 38.7708 13.1318C38.6165 12.3559 38.2355 11.6432 37.6761 11.0838C37.1167 10.5244 36.404 10.1434 35.6281 9.98913C34.8521 9.83473 34.0479 9.91393 33.317 10.2167C32.5861 10.5194 31.9613 11.0321 31.5218 11.6899C31.0823 12.3477 30.8477 13.1211 30.8477 13.9122C30.853 14.9696 31.2767 15.9819 32.0263 16.7277C32.7759 17.4735 33.7903 17.8922 34.8477 17.8922V17.9122ZM30.8477 21.8522H38.8477V23.8522H30.8477V21.8522ZM56.4477 23.8522H54.4477V22.4222C53.1579 23.325 51.6221 23.8102 50.0477 23.8122C48.7052 23.8212 47.382 23.4922 46.2001 22.8555C45.0181 22.2187 44.0154 21.2948 43.2844 20.1688C42.5533 19.0428 42.1173 17.7509 42.0167 16.4121C41.916 15.0734 42.1539 13.7308 42.7084 12.5082C43.2629 11.2855 44.1162 10.222 45.1896 9.41583C46.2631 8.60953 47.5222 8.08633 48.8509 7.89453C50.1797 7.70263 51.5354 7.84833 52.793 8.31803C54.0507 8.78773 55.17 9.56633 56.0477 10.5822L54.5777 11.8922C53.9101 11.1458 53.0664 10.5784 52.1233 10.2417C51.1803 9.90493 50.168 9.80953 49.1787 9.96423C48.1893 10.1189 47.2545 10.5188 46.4592 11.1273C45.664 11.7359 45.0337 12.5337 44.6259 13.4483C44.218 14.3628 44.0455 15.3648 44.1241 16.3631C44.2027 17.3614 44.5298 18.3241 45.0758 19.1635C45.6218 20.0029 46.3691 20.6924 47.2498 21.169C48.1304 21.6456 49.1164 21.8942 50.1177 21.8922C50.9487 21.8939 51.7703 21.7161 52.5263 21.3709C53.2822 21.0257 53.9547 20.5213 54.4977 19.8922H49.0977V17.8922H56.4677L56.4477 23.8522ZM63.8077 7.95223C64.9944 7.95223 66.1544 8.30413 67.1411 8.96343C68.1278 9.62273 68.8969 10.5597 69.351 11.6561C69.8051 12.7525 69.9239 13.9589 69.6924 15.1227C69.4609 16.2866 68.8895 17.3557 68.0503 18.1948C67.2112 19.034 66.1421 19.6054 64.9782 19.8369C63.8144 20.0684 62.608 19.9496 61.5116 19.4955C60.4152 19.0413 59.4782 18.2723 58.8189 17.2856C58.1596 16.2989 57.8077 15.1389 57.8077 13.9522C57.8024 13.1592 57.9544 12.3731 58.2548 11.6392C58.5552 10.9053 58.9981 10.2382 59.5579 9.67663C60.1177 9.11493 60.7833 8.66983 61.5162 8.36693C62.2491 8.06413 63.0347 7.90953 63.8277 7.91223L63.8077 7.95223ZM63.8077 17.9522C64.5988 17.9522 65.3722 17.7176 66.03 17.2781C66.6878 16.8385 67.2005 16.2138 67.5032 15.4829C67.806 14.752 67.8852 13.9478 67.7308 13.1718C67.5765 12.3959 67.1955 11.6832 66.6361 11.1238C66.0767 10.5644 65.364 10.1834 64.5881 10.0291C63.8121 9.87473 63.0079 9.95393 62.277 10.2567C61.5461 10.5594 60.9213 11.0721 60.4818 11.7299C60.0423 12.3877 59.8077 13.1611 59.8077 13.9522C59.8235 15.0061 60.2546 16.0112 61.0074 16.749C61.7601 17.4867 62.7737 17.8976 63.8277 17.8922L63.8077 17.9522ZM59.8077 21.8922H67.8077V23.8922H59.8077V21.8922ZM71.9377 7.91223H73.9377V23.8122H71.9377V7.91223ZM76.7077 7.91223H78.7077C78.8107 7.90133 78.9146 7.90133 79.0177 7.91223C79.8553 7.82133 80.7027 7.90793 81.5046 8.16623C82.3065 8.42463 83.0451 8.84893 83.6721 9.41163C84.2992 9.97433 84.8007 10.6628 85.144 11.4322C85.4874 12.2016 85.6648 13.0347 85.6648 13.8772C85.6648 14.7197 85.4874 15.5528 85.144 16.3222C84.8007 17.0916 84.2992 17.7801 83.6721 18.3428C83.0451 18.9055 82.3065 19.3298 81.5046 19.5882C80.7027 19.8465 79.8553 19.9331 79.0177 19.8422H78.7077V23.8422H76.7077V7.91223ZM78.7077 9.91223V17.8222H79.0177C79.5826 17.8974 80.157 17.8511 80.7026 17.6862C81.2481 17.5214 81.7521 17.2419 82.1808 16.8665C82.6096 16.4911 82.9531 16.0284 83.1885 15.5094C83.4239 14.9904 83.5457 14.4271 83.5457 13.8572C83.5457 13.2873 83.4239 12.724 83.1885 12.205C82.9531 11.686 82.6096 11.2233 82.1808 10.8479C81.7521 10.4724 81.2481 10.193 80.7026 10.0281C80.157 9.86333 79.5826 9.81703 79.0177 9.89223C78.9088 9.90353 78.8014 9.92703 78.6977 9.96223L78.7077 9.91223ZM93.1177 9.06223L91.6377 10.2322C91.3824 9.96543 91.0562 9.77703 90.6975 9.68923C90.3388 9.60143 89.9625 9.61783 89.6128 9.73653C89.263 9.85513 88.9545 10.0711 88.7233 10.3591C88.4921 10.6471 88.3479 10.9951 88.3077 11.3622V11.5222C88.3077 12.4022 88.9177 12.9922 90.1077 13.0722C94.6877 13.3522 96.7877 15.5022 96.7877 18.3422V18.5222C96.6694 19.6462 96.2308 20.7126 95.524 21.5946C94.8172 22.4766 93.8719 23.1369 92.8007 23.4972C91.7294 23.8574 90.5772 23.9024 89.4811 23.6267C88.385 23.3511 87.3911 22.7664 86.6177 21.9422L88.1477 20.7622C88.5038 21.1439 88.9387 21.4435 89.4222 21.6404C89.9057 21.8372 90.4262 21.9266 90.9477 21.9022C91.9109 21.953 92.8564 21.6297 93.5868 20.9998C94.3173 20.37 94.7762 19.4823 94.8677 18.5222V18.3822C94.8677 15.7122 92.2477 15.2222 89.9777 15.0022C87.8777 14.8022 86.3677 13.4922 86.3677 11.6022V11.5222C86.4417 10.5382 86.8908 9.62023 87.6221 8.95783C88.3534 8.29533 89.3112 7.93893 90.2977 7.96223C90.8205 7.94683 91.3406 8.04113 91.8247 8.23923C92.3087 8.43733 92.7458 8.73473 93.1077 9.11223L93.1177 9.06223ZM104.618 21.7822C107.108 21.7822 109.078 19.0922 109.078 15.7822V7.78223H111.078V15.7822C111.078 20.1822 108.198 23.7322 104.658 23.7322C101.118 23.7322 98.2377 20.1822 98.2377 15.7822V7.78223H100.238V15.7822C100.158 19.1422 102.128 21.8322 104.608 21.8322L104.618 21.7822ZM126.428 23.7822H124.428V13.8822L119.818 19.8822L115.208 13.8822V23.8122H113.208V7.91223L119.808 16.6022L126.408 7.91223L126.428 23.7822Z" fill="#FEFBF9"/>
<path d="M11.0172 5.52252C11.0172 4.07974 10.4441 2.69605 9.42391 1.67586C8.40371 0.655659 7.01999 0.0825195 5.57721 0.0825195C4.13443 0.0825195 2.75075 0.655659 1.73055 1.67586C0.710347 2.69605 0.137207 4.07974 0.137207 5.52252V21.9725L4.61721 25.1825V33.0025H6.53721V25.1825L11.0172 21.9725V5.52252ZM9.09721 14.7225L6.53721 17.2825V14.8825L9.09721 12.3225V14.7225ZM2.09721 12.3225L4.65721 14.8825V17.2825L2.09721 14.7225V12.3225ZM9.09721 9.60252L5.57721 13.1225L2.05721 9.52252V7.12252L5.57721 10.6425L9.09721 7.12252V9.60252ZM5.57721 2.00252C6.35136 2.00594 7.10304 2.26305 7.71711 2.73445C8.33121 3.20585 8.77381 3.86555 8.97721 4.61252L5.57721 8.00252L2.17721 4.61252C2.37315 3.85812 2.81258 3.18947 3.42734 2.71033C4.0421 2.23118 4.7978 1.96831 5.57721 1.96251V2.00252ZM2.05721 21.0025V17.4025L4.61721 19.9625V22.8225L2.05721 21.0025ZM6.53721 22.8325V19.9625L9.09721 17.4025V20.9925L6.53721 22.8325Z" fill="#FEFBF9"/>
</svg>
