<svg width="131" height="31" viewBox="0 0 131 31" fill="none" xmlns="http://www.w3.org/2000/svg">
<path d="M13.8678 5.19263V0.942627H0.467773V30.1426H13.8678V25.8926C11.1228 25.8926 8.49017 24.8021 6.54921 22.8611C4.60821 20.9201 3.51777 18.2876 3.51777 15.5426C3.51777 12.7976 4.60821 10.165 6.54921 8.22408C8.49017 6.28308 11.1228 5.19263 13.8678 5.19263Z" fill="#FEFBF9"/>
<path d="M13.8662 5.19263V25.8926C16.6112 25.8926 19.2438 24.8021 21.1848 22.8611C23.1258 20.9201 24.2162 18.2876 24.2162 15.5426C24.2162 12.7976 23.1258 10.165 21.1848 8.22408C19.2438 6.28308 16.6112 5.19263 13.8662 5.19263Z" fill="#FEFBF9"/>
<path d="M31.7373 7.79272H34.7373V22.2427H31.7373V7.79272Z" fill="#FEFBF9"/>
<path d="M36.4175 17.2926C36.4175 16.253 36.7262 15.2368 37.3044 14.3728C37.8826 13.5088 38.7043 12.8359 39.6654 12.4394C40.6265 12.043 41.6836 11.9408 42.7028 12.1458C43.722 12.3508 44.6574 12.8538 45.3904 13.591C46.1234 14.3283 46.6211 15.2665 46.8203 16.2869C47.0194 17.3073 46.9112 18.3638 46.5092 19.3226C46.1072 20.2813 45.4297 21.0992 44.5624 21.6724C43.6951 22.2457 42.6771 22.5485 41.6375 22.5426C40.948 22.548 40.2643 22.4157 39.6266 22.1533C38.9889 21.891 38.4099 21.504 37.9237 21.0151C37.4375 20.5261 37.0539 19.9449 36.7952 19.3057C36.5366 18.6665 36.4082 17.9821 36.4175 17.2926ZM43.9375 17.2926C43.9257 16.8444 43.782 16.4096 43.5244 16.0427C43.2668 15.6757 42.9068 15.3928 42.4892 15.2294C42.0717 15.066 41.6153 15.0293 41.1771 15.124C40.7388 15.2186 40.3382 15.4403 40.0253 15.7615C39.7124 16.0826 39.5011 16.4888 39.4179 16.9294C39.3347 17.37 39.3832 17.8253 39.5574 18.2384C39.7316 18.6515 40.0237 19.0042 40.3973 19.2521C40.7708 19.5001 41.2091 19.6324 41.6575 19.6326C41.9628 19.6386 42.266 19.5815 42.5482 19.4649C42.8304 19.3484 43.0855 19.1749 43.2976 18.9553C43.5097 18.7357 43.6742 18.4746 43.7809 18.1886C43.8876 17.9025 43.9341 17.5975 43.9175 17.2926H43.9375Z" fill="#FEFBF9"/>
<path d="M58.7263 12.3428V21.7528C58.7263 25.0728 56.1263 26.4828 53.4963 26.4828C52.5686 26.5589 51.6381 26.3746 50.8096 25.9506C49.981 25.5266 49.2872 24.8797 48.8063 24.0828L51.3363 22.6228C51.5413 23.0362 51.8674 23.3772 52.2712 23.6005C52.675 23.8238 53.1372 23.9188 53.5963 23.8728C53.8888 23.9088 54.1856 23.8798 54.4655 23.7878C54.7455 23.6957 55.0016 23.543 55.2156 23.3404C55.4297 23.1378 55.5963 22.8905 55.7036 22.616C55.8109 22.3416 55.8562 22.0468 55.8363 21.7528V20.8428C55.4872 21.2661 55.0442 21.6021 54.5426 21.8243C54.0409 22.0465 53.4944 22.1487 52.9463 22.1228C51.6202 22.1228 50.3485 21.596 49.4108 20.6583C48.4731 19.7207 47.9463 18.4489 47.9463 17.1228C47.9463 15.7967 48.4731 14.525 49.4108 13.5873C50.3485 12.6496 51.6202 12.1228 52.9463 12.1228C53.4944 12.0969 54.0409 12.1991 54.5426 12.4213C55.0442 12.6435 55.4872 12.9795 55.8363 13.4028V12.4028L58.7263 12.3428ZM55.8363 17.0928C55.8562 16.6144 55.7326 16.1409 55.4813 15.7333C55.23 15.3257 54.8626 15.0026 54.4261 14.8055C53.9897 14.6084 53.5044 14.5464 53.0324 14.6274C52.5605 14.7084 52.1235 14.9287 51.7778 15.26C51.4321 15.5913 51.1934 16.0185 51.0924 16.4866C50.9914 16.9547 51.0327 17.4422 51.211 17.8866C51.3894 18.331 51.6966 18.7119 52.0931 18.9803C52.4897 19.2487 52.9575 19.3924 53.4363 19.3928C53.7488 19.4153 54.0625 19.372 54.3571 19.2658C54.6518 19.1595 54.921 18.9926 55.1471 18.7758C55.3733 18.5591 55.5515 18.2973 55.6702 18.0074C55.7889 17.7175 55.8455 17.4059 55.8363 17.0928Z" fill="#FEFBF9"/>
<path d="M60.4173 17.2927C60.4173 16.2539 60.7255 15.2385 61.3028 14.3749C61.8801 13.5113 62.7006 12.8384 63.6605 12.4414C64.6204 12.0443 65.6765 11.9409 66.6952 12.1443C67.7139 12.3477 68.6493 12.8487 69.3832 13.5839C70.117 14.3192 70.6162 15.2556 70.8176 16.2746C71.0191 17.2937 70.9137 18.3496 70.5148 19.3087C70.1159 20.2679 69.4414 21.0871 68.5768 21.6628C67.7121 22.2385 66.6961 22.5447 65.6573 22.5427C64.9665 22.5494 64.2812 22.4181 63.6418 22.1565C63.0024 21.8949 62.4216 21.5083 61.9336 21.0193C61.4455 20.5303 61.06 19.9488 60.7996 19.3089C60.5393 18.669 60.4093 17.9835 60.4173 17.2927ZM67.9373 17.2927C67.9255 16.8441 67.7815 16.4089 67.5235 16.0417C67.2655 15.6746 66.9048 15.3917 66.4867 15.2286C66.0686 15.0655 65.6117 15.0294 65.1732 15.1249C64.7347 15.2203 64.3341 15.4431 64.0216 15.7652C63.7091 16.0873 63.4986 16.4945 63.4166 16.9357C63.3345 17.3769 63.3844 17.8325 63.5601 18.2454C63.7358 18.6584 64.0295 19.0103 64.4044 19.2571C64.7792 19.5038 65.2185 19.6345 65.6673 19.6327C65.9726 19.6387 66.2758 19.5816 66.558 19.465C66.8402 19.3485 67.0953 19.175 67.3074 18.9554C67.5195 18.7358 67.684 18.4747 67.7907 18.1887C67.8974 17.9026 67.9439 17.5976 67.9273 17.2927H67.9373Z" fill="#FEFBF9"/>
<path d="M72.2861 9.69284C72.2861 9.34084 72.3905 8.99664 72.5861 8.70394C72.7817 8.4112 73.0597 8.18306 73.3849 8.04833C73.7102 7.91361 74.0681 7.87836 74.4134 7.94704C74.7586 8.01572 75.0758 8.18525 75.3248 8.43419C75.5737 8.68314 75.7432 9.00034 75.8119 9.34554C75.8806 9.69084 75.8453 10.0487 75.7106 10.374C75.5759 10.6992 75.3477 10.9772 75.055 11.1728C74.7623 11.3684 74.4182 11.4728 74.0661 11.4728C73.5956 11.4676 73.1459 11.2784 72.8132 10.9457C72.4805 10.613 72.2913 10.1633 72.2861 9.69284ZM72.5761 12.3428H75.5761V22.2428H72.5761V12.3428Z" fill="#FEFBF9"/>
<path d="M88.4175 17.2928C88.4511 17.9512 88.3542 18.6098 88.1323 19.2306C87.9105 19.8514 87.568 20.4222 87.1247 20.9101C86.6813 21.3981 86.1459 21.7935 85.5491 22.0737C84.9524 22.3539 84.3061 22.5133 83.6475 22.5428C83.0886 22.58 82.5285 22.4905 82.0091 22.281C81.4896 22.0714 81.0242 21.7473 80.6475 21.3328V26.2228H77.6475V12.3428H80.6475V13.2728C81.0247 12.8595 81.4905 12.5369 82.01 12.3291C82.5295 12.1212 83.0893 12.0336 83.6475 12.0728C84.3035 12.1023 84.9472 12.2608 85.5419 12.5391C86.1366 12.8174 86.6707 13.2102 87.1136 13.6949C87.5566 14.1796 87.8997 14.7468 88.1234 15.3642C88.3471 15.9815 88.4471 16.6368 88.4175 17.2928ZM85.4175 17.2928C85.4057 16.8283 85.257 16.3777 84.9902 15.9974C84.7234 15.6171 84.3502 15.3239 83.9175 15.1548C83.4848 14.9856 83.0118 14.948 82.5577 15.0465C82.1037 15.145 81.6889 15.3754 81.3652 15.7087C81.0415 16.042 80.8234 16.4634 80.7383 16.9202C80.6531 17.3769 80.7046 17.8486 80.8864 18.2762C81.0682 18.7037 81.3721 19.0681 81.7601 19.3237C82.1481 19.5793 82.6029 19.7146 83.0675 19.7128C83.3857 19.7263 83.7032 19.6724 83.9991 19.5546C84.2951 19.4368 84.5628 19.2578 84.7847 19.0293C85.0066 18.8008 85.1776 18.5279 85.2867 18.2287C85.3958 17.9294 85.4403 17.6105 85.4175 17.2928Z" fill="#FEFBF9"/>
<path d="M97.547 19.273C97.547 21.553 95.547 22.523 93.427 22.523C92.5623 22.6008 91.6942 22.4175 90.9348 21.9968C90.1754 21.5761 89.5596 20.9373 89.167 20.163L91.747 18.703C91.8492 19.0598 92.0708 19.3707 92.3748 19.5837C92.6788 19.7967 93.0467 19.8988 93.417 19.873C94.127 19.873 94.487 19.653 94.487 19.253C94.487 18.163 89.617 18.743 89.617 15.313C89.617 13.153 91.437 12.073 93.497 12.073C94.28 12.0379 95.058 12.2156 95.7481 12.5871C96.4383 12.9586 97.015 13.5101 97.417 14.183L94.837 15.543C94.723 15.285 94.5368 15.0656 94.3008 14.9112C94.0647 14.7568 93.789 14.6741 93.507 14.673C92.987 14.673 92.677 14.873 92.677 15.223C92.677 16.363 97.547 15.613 97.547 19.273Z" fill="#FEFBF9"/>
<path d="M108.418 12.3425V22.2425H105.418V21.3125C105.077 21.7242 104.644 22.0499 104.155 22.2636C103.665 22.4773 103.132 22.5728 102.598 22.5425C100.598 22.5425 98.8877 21.1125 98.8877 18.4425V12.3425H101.888V17.9925C101.864 18.2287 101.892 18.4672 101.97 18.6916C102.048 18.9159 102.173 19.1207 102.337 19.2919C102.502 19.463 102.702 19.5964 102.923 19.6829C103.144 19.7693 103.381 19.8067 103.618 19.7925C104.698 19.7925 105.458 19.1525 105.458 17.7925V12.3425H108.418Z" fill="#FEFBF9"/>
<path d="M125.418 16.1624V22.2424H122.418V16.4224C122.418 15.4224 121.948 14.8024 120.998 14.8024C120.048 14.8024 119.448 15.4924 119.448 16.6624V22.2424H116.448V16.4224C116.448 15.4224 115.978 14.8024 115.028 14.8024C114.078 14.8024 113.478 15.4924 113.478 16.6624V22.2424H110.478V12.3424H113.478V13.2524C113.789 12.8504 114.194 12.532 114.659 12.326C115.123 12.12 115.632 12.0328 116.138 12.0724C116.645 12.0459 117.151 12.1519 117.605 12.3798C118.059 12.6077 118.446 12.9498 118.728 13.3724C119.058 12.9308 119.494 12.58 119.996 12.3527C120.497 12.1253 121.049 12.0289 121.598 12.0724C123.938 12.0724 125.418 13.6924 125.418 16.1624Z" fill="#FEFBF9"/>
<path d="M127.937 12.2826C129.152 12.2826 130.137 11.2976 130.137 10.0826C130.137 8.86757 129.152 7.88257 127.937 7.88257C126.722 7.88257 125.737 8.86757 125.737 10.0826C125.737 11.2976 126.722 12.2826 127.937 12.2826Z" fill="#FEFBF9"/>
</svg>
