<svg width="116" height="19" viewBox="0 0 116 19" fill="none" xmlns="http://www.w3.org/2000/svg">
<path d="M0 18.408H12.24C16.248 18.408 18.432 16.584 18.432 13.704C18.432 11.088 16.608 9.216 14.28 9.168C16.272 8.952 17.76 7.368 17.76 5.136C17.76 2.256 15.408 0.407999 11.136 0.407999H0V18.408ZM3.6 15.36V10.752H10.896C13.152 10.752 14.472 11.64 14.472 13.152C14.472 14.544 13.464 15.36 11.808 15.36H3.6ZM3.6 7.8V3.408H10.704C12.72 3.408 13.8 4.152 13.8 5.688C13.8 7.056 12.744 7.8 10.8 7.8H3.6Z" fill="#FEFBF9"/>
<path d="M20.1159 18.408H23.9559V11.328H28.6119L34.0839 18.408H38.7879L32.8119 10.992C36.3879 10.824 38.5239 8.808 38.5239 5.856C38.5239 2.664 36.1719 0.407999 31.9479 0.407999H20.1159V18.408ZM23.9559 8.208V3.528H31.1319C33.6279 3.528 34.6839 4.224 34.6839 5.88C34.6839 7.512 33.6999 8.208 31.2999 8.208H23.9559Z" fill="#FEFBF9"/>
<path d="M42.9244 18.408L44.9884 14.088H54.8764L56.9404 18.408H61.2124L51.9244 0.407999H47.9404L38.7244 18.408H42.9244ZM46.4284 11.088L49.9324 3.744L53.4364 11.088H46.4284Z" fill="#FEFBF9"/>
<path d="M60.5839 0.407999H56.3119L64.7599 18.408H69.0319L77.4319 0.407999H73.2319L66.9439 14.568L60.5839 0.407999Z" fill="#FEFBF9"/>
<path d="M87.5203 18.84C94.0483 18.84 98.2003 15.12 98.2003 9.408C98.2003 3.72 94.0483 0 87.5203 0C80.9923 0 76.8403 3.72 76.8403 9.408C76.8403 15.12 80.9923 18.84 87.5203 18.84ZM80.6803 9.408C80.6803 5.592 83.3683 3.12 87.5203 3.12C91.6723 3.12 94.3603 5.592 94.3603 9.408C94.3603 13.224 91.6723 15.672 87.5203 15.672C83.3683 15.672 80.6803 13.224 80.6803 9.408Z" fill="#FEFBF9"/>
<path d="M106.029 9.02439H107.59V7.09756H108.517L110.005 9.02439H111.834L110.176 6.97561C111.029 6.78049 111.542 6.17073 111.542 5.39024C111.542 4.43903 110.81 3.70732 109.517 3.70732H106.029V9.02439ZM102.2 6.48781C102.2 10.0732 105.127 13 108.712 13C112.273 13 115.2 10.0732 115.2 6.48781C115.2 2.92683 112.273 0 108.712 0C105.127 0 102.2 2.92683 102.2 6.48781ZM103.908 6.48781C103.908 3.68293 105.883 1.60976 108.712 1.60976C111.517 1.60976 113.493 3.68293 113.493 6.48781C113.493 9.31707 111.517 11.3902 108.712 11.3902C105.883 11.3902 103.908 9.31707 103.908 6.48781ZM107.59 5.85366V4.97561H109.273C109.883 4.97561 109.981 5.04878 109.981 5.39024C109.981 5.7561 109.883 5.85366 109.322 5.85366H107.59Z" fill="#FEFBF9"/>
</svg>
