<svg width="149" height="35" viewBox="0 0 149 35" fill="none" xmlns="http://www.w3.org/2000/svg">
<path d="M51.6387 23.4671H60.5247V21.0474H54.5736V9.58569H51.6387V23.4671Z" fill="#FEFBF9"/>
<path d="M66.546 23.6702C69.7046 23.6702 71.6702 21.508 71.6702 18.302C71.6702 15.0756 69.7046 12.9202 66.546 12.9202C63.3875 12.9202 61.4219 15.0756 61.4219 18.302C61.4219 21.508 63.3875 23.6702 66.546 23.6702ZM66.5596 21.4334C65.1023 21.4334 64.3567 20.0981 64.3567 18.2816C64.3567 16.4651 65.1023 15.1231 66.5596 15.1231C67.9898 15.1231 68.7353 16.4651 68.7353 18.2816C68.7353 20.0981 67.9898 21.4334 66.5596 21.4334Z" fill="#FEFBF9"/>
<path d="M77.6646 27.5879C80.6402 27.5879 82.7549 26.2322 82.7549 23.5685V13.0558H79.8878V14.8045H79.7794C79.393 13.9572 78.5458 12.9202 76.8038 12.9202C74.5196 12.9202 72.5879 14.6961 72.5879 18.241C72.5879 21.7045 74.4654 23.3177 76.8106 23.3177C78.4712 23.3177 79.3998 22.484 79.7794 21.6232H79.9014V23.5278C79.9014 24.958 78.9863 25.5138 77.7324 25.5138C76.4581 25.5138 75.8142 24.958 75.577 24.3276L72.9065 24.6869C73.2521 26.3271 74.8585 27.5879 77.6646 27.5879ZM77.7256 21.1487C76.309 21.1487 75.5363 20.0236 75.5363 18.2274C75.5363 16.4583 76.2955 15.218 77.7256 15.218C79.1287 15.218 79.9149 16.4041 79.9149 18.2274C79.9149 20.0642 79.1151 21.1487 77.7256 21.1487Z" fill="#FEFBF9"/>
<path d="M89.1847 23.6702C92.3433 23.6702 94.309 21.508 94.309 18.302C94.309 15.0756 92.3433 12.9202 89.1847 12.9202C86.0262 12.9202 84.0605 15.0756 84.0605 18.302C84.0605 21.508 86.0262 23.6702 89.1847 23.6702ZM89.1983 21.4334C87.741 21.4334 86.9954 20.0981 86.9954 18.2816C86.9954 16.4651 87.741 15.1231 89.1983 15.1231C90.6284 15.1231 91.374 16.4651 91.374 18.2816C91.374 20.0981 90.6284 21.4334 89.1983 21.4334Z" fill="#FEFBF9"/>
<path d="M95.6144 23.4671H98.5018V13.0561H95.6144V23.4671ZM97.0649 11.714C97.9257 11.714 98.6306 11.0566 98.6306 10.25C98.6306 9.45022 97.9257 8.79272 97.0649 8.79272C96.2109 8.79272 95.5059 9.45022 95.5059 10.25C95.5059 11.0566 96.2109 11.714 97.0649 11.714Z" fill="#FEFBF9"/>
<path d="M100.242 27.371H103.129V21.7994H103.217C103.617 22.667 104.491 23.6363 106.172 23.6363C108.545 23.6363 110.395 21.7588 110.395 18.2748C110.395 14.6961 108.463 12.9202 106.179 12.9202C104.437 12.9202 103.604 13.9572 103.217 14.8045H103.088V13.0558H100.242V27.371ZM103.068 18.2613C103.068 16.4041 103.854 15.218 105.257 15.218C106.688 15.218 107.447 16.4583 107.447 18.2613C107.447 20.0778 106.674 21.3385 105.257 21.3385C103.868 21.3385 103.068 20.1185 103.068 18.2613Z" fill="#FEFBF9"/>
<path d="M120.41 16.0245C120.152 14.1064 118.607 12.9202 115.977 12.9202C113.313 12.9202 111.558 14.1538 111.564 16.1601C111.558 17.7191 112.54 18.729 114.574 19.1357L116.377 19.4949C117.285 19.6779 117.699 20.01 117.712 20.5319C117.699 21.1487 117.028 21.5893 116.018 21.5893C114.987 21.5893 114.303 21.1487 114.127 20.3015L111.287 20.4506C111.558 22.4433 113.252 23.6702 116.011 23.6702C118.708 23.6702 120.64 22.2942 120.647 20.2405C120.64 18.7358 119.657 17.8343 117.638 17.4208L115.753 17.0412C114.784 16.8311 114.425 16.499 114.432 15.9974C114.425 15.3739 115.13 14.9672 116.024 14.9672C117.028 14.9672 117.624 15.5162 117.766 16.1872L120.41 16.0245Z" fill="#FEFBF9"/>
<path d="M128.569 19.0341C128.576 20.4304 127.62 21.1624 126.583 21.1624C125.492 21.1624 124.787 20.3965 124.78 19.1696V13.0559H121.893V19.6848C121.899 22.1181 123.323 23.6025 125.417 23.6025C126.983 23.6025 128.108 22.7959 128.576 21.5758H128.684V23.4669H131.456V13.0559H128.569V19.0341Z" fill="#FEFBF9"/>
<path d="M133.193 23.4668H136.081V17.2175C136.081 16.0652 136.813 15.2993 137.775 15.2993C138.724 15.2993 139.361 15.95 139.361 16.9735V23.4668H142.161V17.109C142.161 16.0313 142.778 15.2993 143.828 15.2993C144.75 15.2993 145.441 15.8754 145.441 17.0345V23.4668H148.322V16.4651C148.322 14.208 146.98 12.9202 145.041 12.9202C143.516 12.9202 142.33 13.6997 141.903 14.8926H141.795C141.463 13.6861 140.398 12.9202 138.968 12.9202C137.565 12.9202 136.501 13.6658 136.067 14.8926H135.945V13.0558H133.193V23.4668Z" fill="#FEFBF9"/>
<path d="M15.7011 0.690186H24.6999L21.0878 10.7845C14.7302 11.9017 9.86757 18.0527 9.86757 25.4732C9.86757 28.8207 10.8572 31.9099 12.5271 34.3951H0.578125L11.5018 3.86827C12.1886 1.94882 13.8517 0.690186 15.7011 0.690186Z" fill="#FEFBF9"/>
<path d="M24.7 0.690186L22.1614 7.78445L21.3965 0.690186H24.7Z" fill="#FEFBF9"/>
<path d="M30.3953 0.690186H21.3965L24.9934 10.7419C31.4775 11.7354 36.4726 17.9522 36.4726 25.4732C36.4726 28.8207 35.483 31.9099 33.8131 34.3951H45.5182L34.5946 3.86828C33.9078 1.94882 32.2447 0.690186 30.3953 0.690186Z" fill="#FEFBF9"/>
<path d="M14.0954 33.4233C12.5576 31.2333 11.6406 28.4728 11.6406 25.4728C11.6406 18.3554 16.8022 12.5857 23.1693 12.5857C29.5365 12.5857 34.6981 18.3554 34.6981 25.4728C34.6981 28.4728 33.7811 31.2333 32.2433 33.4233C29.7188 31.5439 26.576 30.4294 23.1693 30.4294C19.7627 30.4294 16.6199 31.5439 14.0954 33.4233Z" fill="#FEFBF9"/>
</svg>
