<svg width="62" height="54" viewBox="0 0 62 54" fill="none" xmlns="http://www.w3.org/2000/svg">
<path d="M13.1218 46.8678H15.9484C15.9179 47.1524 15.8569 47.7116 15.6535 48.1082C15.013 49.4808 13.5387 50.2433 10.7427 50.2433C8.50584 50.2433 7.05189 49.6841 6.26901 48.7386C5.73013 48.1082 5.45557 47.2338 5.45557 46.1154C5.45557 45.0987 5.7098 44.2548 6.21812 43.6345C7.03156 42.6178 8.49568 42.0078 10.7935 42.0078C13.925 42.0078 15.2265 43.1262 15.7044 44.3158C15.867 44.7326 15.9179 45.2004 15.9281 45.4545H13.1015C13.0913 45.2715 13.0202 45.0376 12.8982 44.8648C12.6033 44.4378 11.9526 44.1226 10.763 44.1226C9.68528 44.1226 8.9024 44.3971 8.54648 44.9563C8.36352 45.2308 8.29232 45.6376 8.29232 46.1459C8.29232 46.6949 8.38384 47.0712 8.57704 47.3456C8.9736 47.9353 9.85816 48.159 10.7732 48.159C11.8407 48.159 12.6032 47.9455 12.9388 47.4575C13.0609 47.2846 13.1117 47.0813 13.1218 46.8678Z" fill="#FEFBF9"/>
<path d="M24.6803 47.9965V50.1215H17.0649V42.1401H19.8203V47.9965H24.6803Z" fill="#FEFBF9"/>
<path d="M34.1706 50.1215V48.1389H28.4464V47.1018H33.9368V45.1598H28.4464V44.1329H34.0995V42.1401H25.7622V50.1215H34.1706Z" fill="#FEFBF9"/>
<path fill-rule="evenodd" clip-rule="evenodd" d="M42.5502 48.6473H38.2392L37.497 50.1215H34.6196L38.8798 42.1401H42.1638L46.1902 50.1215H43.2518L42.5502 48.6473ZM39.1339 46.8578H41.6862L40.7303 44.926L40.4455 44.2041L40.1406 44.9361L39.1339 46.8578Z" fill="#FEFBF9"/>
<path fill-rule="evenodd" clip-rule="evenodd" d="M56.4077 44.5701C56.4077 43.8482 56.2349 43.3297 55.8685 42.9535C55.3909 42.4451 54.5669 42.1401 53.3069 42.1401H46.9517V50.1215H49.6669V47.3052H52.1373L54.1197 50.1215H57.1501L54.7405 46.868C55.2789 46.7866 55.7165 46.4613 56.0005 46.0749C56.2549 45.719 56.4077 45.1903 56.4077 44.5701ZM53.7637 44.8243C53.7637 44.9565 53.7437 45.1192 53.6725 45.2412C53.5709 45.4445 53.3069 45.5259 52.8693 45.5259H49.6765V44.0719H52.8181C53.2453 44.0719 53.5301 44.1431 53.6725 44.4074C53.7437 44.5091 53.7637 44.6718 53.7637 44.8243Z" fill="#FEFBF9"/>
<path d="M41.4158 5.78943C41.4158 5.92167 41.3958 6.08431 41.3246 6.20631C41.223 6.40967 40.9582 6.49103 40.5212 6.49103H37.3286V5.03711H40.4703C40.8974 5.03711 41.1822 5.10823 41.3246 5.37263C41.3958 5.47431 41.4158 5.63695 41.4158 5.78943Z" fill="#FEFBF9"/>
<path d="M49.3638 7.82313H51.9158L50.9598 5.89127L50.675 5.16943L50.3702 5.90151L49.3638 7.82313Z" fill="#FEFBF9"/>
<path fill-rule="evenodd" clip-rule="evenodd" d="M0.811032 5.77096C1.14023 2.52952 3.87775 0 7.20607 0H55.1498C58.7002 0 61.5778 2.878 61.5778 6.42824V46.6568C61.5778 50.2071 58.7002 53.0851 55.1498 53.0851H7.20607C3.65583 53.0851 0.777832 50.2071 0.777832 46.6568V6.42824C0.777832 6.20632 0.789112 5.98712 0.811032 5.77096ZM2.11703 17.9796L23.7226 25.2868C24.3112 24.6896 25.1121 24.1704 26.0757 23.766C26.2972 23.6729 26.5258 23.5867 26.7605 23.5073L17.7528 14.3678H24.8038L28.7621 23.0216C29.2849 22.9396 29.8222 22.8874 30.3669 22.8665C30.5481 22.8596 30.7293 22.856 30.9102 22.856V14.3678H37.0165L33.0581 23.0218C33.6679 23.1176 34.2599 23.2541 34.822 23.4301C35.5454 23.6567 36.2039 23.9436 36.7784 24.2801L53.6994 14.3678H60.2386V17.7985L35.4696 26.1756C34.9489 25.6472 34.1725 25.2213 33.2385 24.9515C32.3046 24.6817 31.2551 24.5802 30.2226 24.6598C29.1902 24.7394 28.2213 24.9966 27.4384 25.3988C26.6555 25.801 26.0937 26.3302 25.8242 26.9194C25.5547 27.5086 25.5895 28.1314 25.9242 28.7091C26.2589 29.2867 26.8786 29.7933 27.7047 30.1647C28.5309 30.536 29.5265 30.7554 30.5656 30.7953C31.1429 30.8175 31.7194 30.7837 32.2725 30.6968C32.7145 30.6275 33.1419 30.5242 33.5425 30.3887L41.7514 38.7173H35.9416L33.0577 32.4136C31.6492 32.6348 30.1677 32.6343 28.7621 32.4137L25.8788 38.7173H20.0691L26.7605 31.9281C26.134 31.7162 25.5557 31.4567 25.0415 31.1555L12.1329 38.7173H2.11703V37.4558L23.7225 30.1486C23.2254 29.6442 22.8848 29.0893 22.7214 28.5096C22.5283 27.8244 22.5887 27.1255 22.8934 26.4594L2.11703 23.1983V17.9796ZM60.2386 37.6368L30.9102 27.7176L60.2386 32.3212V37.6368ZM60.2386 40.0565H2.11703V46.6568C2.11703 49.4674 4.39543 51.7458 7.20607 51.7458H55.1498C57.9602 51.7458 60.2386 49.4674 60.2386 46.6568V40.0565ZM16.3801 8.00636V3.10568H13.6553V7.76228C13.6553 8.59604 12.8826 9.15524 11.5812 9.15524C10.2187 9.15524 9.47647 8.61636 9.47647 7.75212V3.10568H6.72111V7.75212C6.72111 10.172 8.70383 11.1989 11.4694 11.1989C14.4281 11.1989 16.3801 10.1618 16.3801 8.00636ZM25.5569 11.0871V8.96204H20.6969V3.10568H17.9415V11.0871H25.5569ZM33.7455 3.10568V5.10864H30.37V11.0871H27.5841V5.10864H24.2187V3.10568H33.7455ZM44.0578 5.53568C44.0578 4.81384 43.885 4.29528 43.5194 3.91904C43.0418 3.41072 42.2178 3.10568 40.957 3.10568H34.6025V11.0871H37.3172V8.27068H39.7879L41.7706 11.0871H44.8002L42.3906 7.83348C42.9298 7.75212 43.3666 7.42676 43.6514 7.04044C43.9058 6.68464 44.0578 6.15592 44.0578 5.53568ZM52.7794 9.61276H48.4682L47.7266 11.0871H44.849L49.109 3.10568H52.393L56.4194 11.0871H53.481L52.7794 9.61276Z" fill="#FEFBF9"/>
</svg>
